<?xml version="1.0" encoding="utf-8"?>
<svg viewBox="42.33 199.587 715.339 100.826" xmlns="http://www.w3.org/2000/svg">
  <g fill="#4bb6aa" fill-rule="nonzero" stroke="none" stroke-width="1" stroke-linecap="butt" stroke-linejoin="miter" stroke-miterlimit="10" stroke-dasharray="" stroke-dashoffset="0" font-family="none" font-weight="none" font-size="none" text-anchor="none" style="mix-blend-mode: normal" transform="matrix(1.481518, 0, 0, 1.481518, 39.133484, -97.743645)">
    <g data-paper-data="{&quot;isGlobalGroup&quot;:true}">
      <g data-paper-data="{&quot;isPrimaryText&quot;:true}">
        <path d="M115.88334,250.34053c-1.03844,5.7586 -4.53136,17.27579 -20.95752,17.27579h-6.32502l6.60823,-10.00674v-45.31355l-6.60823,-10.00674h8.49629v-0.37761h-32.0971v0.37761h2.73769c4.53136,0 8.21308,0.75523 8.21308,8.21308v48.99528c0,7.36345 -3.68173,8.11868 -8.21308,8.11868h-2.73769v0.37761h49.27849l1.98247,-17.559zM88.2232,267.61632h-4.43695v-65.32704h4.43695z" data-paper-data="{&quot;glyphName&quot;:&quot;L&quot;,&quot;glyphIndex&quot;:0,&quot;firstGlyphOfWord&quot;:true,&quot;word&quot;:1}"/>
        <path d="M149.77411,267.99393v-0.37761h-2.8321c-4.53136,0 -8.11868,-0.75523 -8.11868,-8.11868v-48.99528c0,-7.45786 3.58732,-8.21308 8.11868,-8.21308h2.8321v-0.37761h-29.73702v0.37761h2.73769c4.53136,0 8.21308,0.75523 8.21308,8.21308v48.99528c0,7.36345 -3.68173,8.11868 -8.21308,8.11868h-2.73769v0.37761z" data-paper-data="{&quot;glyphName&quot;:&quot;I&quot;,&quot;glyphIndex&quot;:1,&quot;word&quot;:1}"/>
        <path d="M153.55024,201.91167v0.37761c6.60823,0 9.62913,7.45786 11.8004,13.02765l20.95752,52.67701h0.37761l20.4855,-51.26096c2.26568,-5.56979 6.51382,-14.4437 16.14295,-14.4437v-0.37761zM206.79366,216.16655l-16.33176,40.971l-19.73028,-49.37289c-0.47202,-1.22724 -0.28321,-2.64329 0.37761,-3.68173c0.75523,-1.13284 1.98247,-1.79366 3.30411,-1.79366h22.93999c3.39852,0 6.51382,1.69926 8.40189,4.43695c1.88806,2.8321 2.26568,6.32502 1.03844,9.44032z" data-paper-data="{&quot;glyphName&quot;:&quot;V&quot;,&quot;glyphIndex&quot;:2,&quot;word&quot;:1}"/>
        <path d="M284.77073,261.95212l-17.65341,-26.52731c9.44032,-2.54889 14.16049,-8.7795 14.16049,-16.14295c0,-9.62913 -8.02428,-17.3702 -23.97842,-17.3702h-30.20904v0.37761h2.73769c4.53136,0 8.21308,0.75523 8.21308,8.21308v48.99528c0,7.36345 -3.68173,8.11868 -8.21308,8.11868h-2.73769v0.37761h23.3176l6.89144,-10.38436v-21.05192c1.22724,0 2.36008,1.79366 4.24815,4.62576l14.06608,21.14633c2.36008,3.49292 6.41942,5.66419 10.66757,5.66419h9.15711v-0.37761c-4.24815,0 -8.30748,-2.17127 -10.66757,-5.66419zM250.31355,267.61632h-4.43695v-65.32704h4.43695zM257.29939,236.18004v-23.88402l-6.60823,-10.00674h6.60823c10.00674,0 15.01011,7.64666 15.01011,16.99258c0,9.34592 -5.00337,16.89818 -15.01011,16.89818z" data-paper-data="{&quot;glyphName&quot;:&quot;R&quot;,&quot;glyphIndex&quot;:3,&quot;word&quot;:1}"/>
        <path d="M348.30411,250.34053c-1.03844,5.7586 -4.53136,17.27579 -20.95752,17.27579h-5.47539l6.60823,-10.00674v-22.37357c5.09777,0 11.04518,0.0944 11.04518,10.95078h0.37761v-22.46797h-0.37761c0,10.85637 -5.9474,10.95078 -11.04518,10.95078v-22.37357l-6.60823,-10.00674h4.15374c17.4646,0 19.91908,11.51719 20.95752,17.27579l0.37761,-0.0944l-2.07687,-17.559h-47.01281v0.37761h2.73769c4.53136,0 8.21308,0.75523 8.21308,8.21308v48.99528c0,7.36345 -3.68173,8.11868 -8.21308,8.11868h-2.73769v0.37761h48.33446l2.07687,-17.559zM321.49359,267.61632h-4.43695v-65.32704h4.43695z" data-paper-data="{&quot;glyphName&quot;:&quot;E&quot;,&quot;glyphIndex&quot;:4,&quot;word&quot;:1}"/>
        <path d="M411.08227,261.95212l-17.65341,-26.52731c9.44032,-2.54889 14.16049,-8.7795 14.16049,-16.14295c0,-9.62913 -8.02428,-17.3702 -23.97842,-17.3702h-30.20904v0.37761h2.73769c4.53136,0 8.21308,0.75523 8.21308,8.21308v48.99528c0,7.36345 -3.68173,8.11868 -8.21308,8.11868h-2.73769v0.37761h23.3176l6.89144,-10.38436v-21.05192c1.22724,0 2.36008,1.79366 4.24815,4.62576l14.06608,21.14633c2.36008,3.49292 6.41942,5.66419 10.66757,5.66419h9.15711v-0.37761c-4.24815,0 -8.30748,-2.17127 -10.66757,-5.66419zM376.62508,267.61632h-4.43695v-65.32704h4.43695zM383.61092,236.18004v-23.88402l-6.60823,-10.00674h6.60823c10.00674,0 15.01011,7.64666 15.01011,16.99258c0,9.34592 -5.00337,16.89818 -15.01011,16.89818z" data-paper-data="{&quot;glyphName&quot;:&quot;R&quot;,&quot;glyphIndex&quot;:5,&quot;word&quot;:1}"/>
        <path d="M455.26298,201.25084c-16.42616,0 -29.73702,15.10452 -29.73702,33.70196c0,18.59744 13.31086,33.79636 29.73702,33.79636c16.42616,0 29.73702,-15.19892 29.73702,-33.79636c0,-18.59744 -13.31086,-33.70196 -29.73702,-33.70196zM455.26298,268.18274c-11.23399,0 -20.2967,-14.91571 -20.2967,-33.22994c0,-18.31423 9.06271,-33.13554 20.2967,-33.13554c11.23399,0 20.2967,14.82131 20.2967,33.13554c0,18.31423 -9.06271,33.22994 -20.2967,33.22994z" data-paper-data="{&quot;glyphName&quot;:&quot;O&quot;,&quot;glyphIndex&quot;:6,&quot;lastGlyphOfWord&quot;:true,&quot;word&quot;:1}"/>
      </g>
    </g>
  </g>
  <path style="fill:#00A8E1;" d="M 74.13 291.109 C 74.13 294.197 71.603 296.724 68.515 296.724 L 47.946 296.724 C 44.858 296.724 42.331 294.197 42.331 291.109 L 42.331 205.202 C 42.331 202.114 44.858 199.587 47.946 199.587 L 68.515 199.587 C 71.603 199.587 74.13 202.114 74.13 205.202 L 74.13 291.109 L 74.13 291.109 Z"/>
  <g transform="matrix(0.200904, 0, 0, 0.200904, 42.330284, 196.724625)">
    <rect y="68.758" style="fill:#0071CE;" width="158.282" height="48.984"/>
    <rect y="394.255" style="fill:#0071CE;" width="158.282" height="48.984"/>
  </g>
  <g transform="matrix(0.200904, 0, 0, 0.200904, 42.330284, 196.724625)">
    <path style="fill:#0055B8;" d="M79.14,343.531c-4.606,0-8.338-3.732-8.338-8.338V176.808c0-4.606,3.732-8.338,8.338-8.338 c4.606,0,8.338,3.732,8.338,8.338v158.386C87.478,339.798,83.745,343.531,79.14,343.531z"/>
    <path style="fill:#0055B8;" d="M299.263,469.802c0,15.372-12.575,27.949-27.949,27.949h-85.089 c-15.371,0-27.949-12.575-27.949-27.949V158.231c0-15.37,12.577-27.948,27.949-27.948h85.089c15.374,0,27.949,12.577,27.949,27.948 V469.802z"/>
  </g>
  <circle style="fill:#FF9E16;" cx="88.291" cy="246.721" r="7.745"/>
  <g transform="matrix(0.200904, 0, 0, 0.200904, 42.330284, 196.724625)">
    <path style="fill:#FFFFFF;" d="M264.17,327.119h-70.8c-4.606,0-8.338-3.732-8.338-8.338c0-4.606,3.732-8.338,8.338-8.338h70.8 c4.606,0,8.338,3.732,8.338,8.338C272.509,323.385,268.776,327.119,264.17,327.119z"/>
    <path style="fill:#FFFFFF;" d="M264.17,359.211h-70.8c-4.606,0-8.338-3.733-8.338-8.338c0-4.606,3.732-8.338,8.338-8.338h70.8 c4.606,0,8.338,3.732,8.338,8.338S268.776,359.211,264.17,359.211z"/>
  </g>
  <path style="fill:#4BB6AA;" d="M 145.005 285.825 C 145.801 288.808 144.014 291.902 141.031 292.7 L 126.697 296.532 C 123.714 297.331 120.62 295.544 119.821 292.561 L 98.62 213.284 C 97.821 210.301 99.61 207.207 102.593 206.41 L 116.927 202.576 C 119.91 201.779 123.004 203.566 123.801 206.549 L 145.005 285.825 Z"/>
  <path style="fill:#0071CE;" d="M 126.58 216.939 L 101.397 223.673 L 103.7 232.285 L 128.883 225.551 L 126.58 216.939 Z M 130.471 231.485 L 105.287 238.217 L 107.591 246.829 L 132.774 240.095 L 130.471 231.485 Z"/>
  <g transform="matrix(0.200904, 0, 0, 0.200904, 42.330284, 196.724625)">
    <circle style="fill:#FFFFFF;" cx="434.034" cy="406.451" r="23.608"/>
    <path style="fill:#FFFFFF;" d="M389.432,370.983c-3.683,0-7.053-2.459-8.049-6.186c-1.19-4.449,1.452-9.02,5.901-10.209 l61.306-16.394c4.439-1.192,9.019,1.452,10.209,5.901c1.19,4.449-1.452,9.02-5.901,10.209l-61.306,16.394 C390.871,370.891,390.146,370.983,389.432,370.983z"/>
  </g>
</svg>