<?xml version="1.0" standalone="no"?>
<!DOCTYPE svg PUBLIC "-//W3C//DTD SVG 20010904//EN"
 "http://www.w3.org/TR/2001/REC-SVG-20010904/DTD/svg10.dtd">
<svg version="1.0" xmlns="http://www.w3.org/2000/svg"
 width="700.000000pt" height="700.000000pt" viewBox="0 0 700.000000 700.000000"
 preserveAspectRatio="xMidYMid meet">
<metadata>
Created by potrace 1.14, written by Peter Selinger 2001-2017
</metadata>
<g transform="translate(0.000000,700.000000) scale(0.100000,-0.100000)"
fill="#000000" stroke="none">
<path d="M273 6786 c-136 -43 -237 -156 -263 -295 -14 -74 -14 -5908 0 -5982
22 -117 99 -218 208 -271 l67 -33 779 -3 c867 -3 828 -5 933 65 77 52 129 128
154 229 l13 49 11 -50 c35 -156 164 -272 328 -296 85 -12 1164 -11 1252 1 136
20 240 96 298 218 l32 67 5 2199 5 2199 39 -149 c21 -82 42 -153 46 -159 4 -5
30 -102 59 -215 61 -238 67 -258 620 -2319 230 -860 427 -1583 436 -1608 51
-133 201 -233 349 -233 60 0 1065 266 1142 302 135 63 221 223 203 378 -3 30
-193 757 -422 1615 -229 858 -446 1675 -483 1815 -36 140 -77 289 -89 330 -13
41 -41 145 -64 230 -91 353 -357 1340 -392 1454 -11 38 -31 86 -44 106 -63
100 -173 167 -292 177 -64 5 -96 -2 -598 -136 -291 -78 -549 -151 -572 -162
-72 -35 -130 -94 -170 -177 -61 -122 -57 -158 59 -592 96 -358 138 -521 138
-536 0 -4 -17 17 -38 46 -43 62 -117 122 -182 147 -41 16 -104 18 -683 21
-555 2 -647 1 -700 -13 -140 -36 -243 -136 -282 -275 -14 -51 -15 -13 -10 475
3 292 2 661 -2 820 l-8 290 -32 67 c-38 81 -102 146 -181 185 l-57 28 -785 2
c-629 2 -793 -1 -827 -11z m2976 -2681 c244 -58 415 -290 398 -540 -12 -170
-95 -310 -241 -406 -197 -130 -478 -99 -647 70 -99 99 -149 224 -149 372 0
222 135 413 345 487 100 35 193 41 294 17z m400 -1358 c65 -23 94 -101 61
-162 -30 -55 -25 -55 -588 -55 -501 0 -520 1 -544 20 -75 59 -53 172 38 200
47 14 993 11 1033 -3z m2591 -394 c58 -52 48 -153 -18 -187 -48 -25 -894 -247
-916 -240 -67 18 -96 55 -96 121 0 42 19 76 53 95 42 22 852 236 899 237 39 1
54 -4 78 -26z m-2563 -59 c59 -44 60 -125 3 -176 l-30 -28 -516 0 c-565 0
-558 -1 -589 60 -20 38 -19 75 2 111 35 60 28 59 590 56 502 -2 512 -2 540
-23z m2394 -556 c65 -30 122 -85 157 -153 23 -43 27 -62 27 -140 0 -108 -22
-163 -95 -236 -66 -66 -140 -92 -245 -87 -96 5 -165 37 -226 106 -73 83 -100
218 -64 323 32 94 131 185 228 210 58 15 160 4 218 -23z"/>
</g>
</svg>
