<?xml version="1.0" encoding="iso-8859-1"?>
<!-- Generator: Adobe Illustrator 19.0.0, SVG Export Plug-In . SVG Version: 6.00 Build 0)  -->
<svg version="1.1" id="Layer_1" xmlns="http://www.w3.org/2000/svg" xmlns:xlink="http://www.w3.org/1999/xlink" x="0px" y="0px"
	viewBox="0 0 512 512" style="enable-background:new 0 0 512 512;" xml:space="preserve">
	<path style="fill:#00A8E1;" d="M158.277,469.802c0,15.372-12.575,27.949-27.947,27.949H27.948C12.577,497.749,0,485.174,0,469.802
	V42.198C0,26.826,12.577,14.25,27.949,14.25h102.383c15.371,0,27.947,12.576,27.947,27.949v427.603H158.277z" />
	<g>
		<rect y="68.758" style="fill:#0071CE;" width="158.282" height="48.984" />
		<rect y="394.255" style="fill:#0071CE;" width="158.282" height="48.984" />
	</g>
	<g>
		<path style="fill:#0055B8;" d="M79.14,343.531c-4.606,0-8.338-3.732-8.338-8.338V176.808c0-4.606,3.732-8.338,8.338-8.338
		c4.606,0,8.338,3.732,8.338,8.338v158.386C87.478,339.798,83.745,343.531,79.14,343.531z" />
		<path style="fill:#0055B8;" d="M299.263,469.802c0,15.372-12.575,27.949-27.949,27.949h-85.089
		c-15.371,0-27.949-12.575-27.949-27.949V158.231c0-15.37,12.577-27.948,27.949-27.948h85.089c15.374,0,27.949,12.577,27.949,27.948
		V469.802z" />
	</g>
	<circle style="fill:#FF9E16;" cx="228.768" cy="248.858" r="38.546" />
	<g>
		<path style="fill:#FFFFFF;" d="M264.17,327.119h-70.8c-4.606,0-8.338-3.732-8.338-8.338c0-4.606,3.732-8.338,8.338-8.338h70.8
		c4.606,0,8.338,3.732,8.338,8.338C272.509,323.385,268.776,327.119,264.17,327.119z" />
		<path style="fill:#FFFFFF;" d="M264.17,359.211h-70.8c-4.606,0-8.338-3.733-8.338-8.338c0-4.606,3.732-8.338,8.338-8.338h70.8
		c4.606,0,8.338,3.732,8.338,8.338S268.776,359.211,264.17,359.211z" />
	</g>
	<path style="fill:#4BB6AA;" d="M511.055,443.502c3.969,14.848-4.932,30.248-19.779,34.22l-71.347,19.079
	c-14.85,3.972-30.25-4.927-34.221-19.776L280.172,82.431c-3.971-14.849,4.93-30.248,19.779-34.219l71.347-19.081
	c14.85-3.972,30.25,4.927,34.219,19.776L511.055,443.502z" />
	<path style="fill:#0071CE;" d="M419.349,100.619L294.001,134.14l11.466,42.864l125.345-33.521L419.349,100.619z M438.712,173.017
	l-125.345,33.52l11.463,42.864l125.347-33.521L438.712,173.017z" />
	<g>
		<circle style="fill:#FFFFFF;" cx="434.034" cy="406.451" r="23.608" />
		<path style="fill:#FFFFFF;" d="M389.432,370.983c-3.683,0-7.053-2.459-8.049-6.186c-1.19-4.449,1.452-9.02,5.901-10.209
		l61.306-16.394c4.439-1.192,9.019,1.452,10.209,5.901c1.19,4.449-1.452,9.02-5.901,10.209l-61.306,16.394
		C390.871,370.891,390.146,370.983,389.432,370.983z" />
	</g>
	<g>
	</g>
	<g>
	</g>
	<g>
	</g>
	<g>
	</g>
	<g>
	</g>
	<g>
	</g>
	<g>
	</g>
	<g>
	</g>
	<g>
	</g>
	<g>
	</g>
	<g>
	</g>
	<g>
	</g>
	<g>
	</g>
	<g>
	</g>
	<g>
	</g>
</svg>