<?xml version="1.0" encoding="utf-8"?>
<svg viewBox="-0.019 0 820 100" width="820" height="100" xmlns="http://www.w3.org/2000/svg">
  <g>
    <path style="fill:#00A8E1;"
      d="M 32.718 94.219 C 32.718 97.397 30.116 99.999 26.938 99.999 L 5.763 99.999 C 2.583 99.999 -0.018 97.397 -0.018 94.219 L -0.018 5.781 C -0.018 2.601 2.583 0 5.763 0 L 26.938 0 C 30.116 0 32.718 2.601 32.718 5.781 L 32.718 94.219 Z" />
    <rect y="11.274" style="fill:#0071CE;" width="32.736" height="10.131" x="-0.019" />
    <path style="fill:#0055B8;"
      d="M 16.349 68.104 C 15.397 68.104 14.625 67.332 14.625 66.379 L 14.625 33.622 C 14.625 32.669 15.397 31.897 16.349 31.897 C 17.302 31.897 18.074 32.669 18.074 33.622 L 18.074 66.38 C 18.074 67.332 17.302 68.104 16.349 68.104 Z" />
    <rect y="78.595" style="fill:#0071CE;" width="32.736" height="10.131" x="-0.019" />
  </g>
  <g>
    <path style="fill:#0055B8;"
      d="M 61.876 94.22 C 61.876 97.399 59.275 100 56.095 100 L 38.497 100 C 35.318 100 32.716 97.399 32.716 94.22 L 32.716 29.78 C 32.716 26.601 35.318 23.999 38.497 23.999 L 56.095 23.999 C 59.275 23.999 61.876 26.6 61.876 29.78 L 61.876 94.22 Z" />
    <circle style="fill:#FF9E16;" cx="47.296" cy="48.523" r="7.973" />
    <path style="fill:#FFFFFF;"
      d="M 54.618 64.709 L 39.975 64.709 C 39.022 64.709 38.25 63.938 38.25 62.985 C 38.25 62.032 39.022 61.26 39.975 61.26 L 54.618 61.26 C 55.57 61.26 56.342 62.032 56.342 62.985 C 56.342 63.937 55.57 64.709 54.618 64.709 Z" />
    <path style="fill:#FFFFFF;"
      d="M 54.618 71.347 L 39.975 71.347 C 39.022 71.347 38.25 70.575 38.25 69.622 C 38.25 68.67 39.022 67.898 39.975 67.898 L 54.618 67.898 C 55.57 67.898 56.342 68.67 56.342 69.622 C 56.342 70.575 55.57 71.347 54.618 71.347 Z" />
  </g>
  <g>
    <path style="fill:#4BB6AA;"
      d="M 105.681 88.779 C 106.501 91.85 104.661 95.035 101.59 95.856 L 86.834 99.801 C 83.763 100.624 80.578 98.784 79.756 95.713 L 57.93 14.101 C 57.107 11.03 58.948 7.844 62.019 7.023 L 76.776 3.078 C 79.847 2.257 83.032 4.096 83.853 7.167 L 105.681 88.779 Z" />
    <path style="fill:#0071CE;"
      d="M 86.713 17.863 L 60.788 24.796 L 63.16 33.661 L 89.084 26.729 L 86.713 17.863 Z M 90.719 32.838 L 64.792 39.768 L 67.165 48.634 L 93.089 41.701 L 90.719 32.838 Z" />
    <path style="fill:#FFFFFF;"
      d="M 80.525 73.782 C 79.763 73.782 79.066 73.273 78.86 72.502 C 78.614 71.582 79.16 70.637 80.08 70.391 L 92.76 67 C 93.678 66.754 94.625 67.3 94.871 68.221 C 95.117 69.141 94.571 70.086 93.651 70.332 L 80.971 73.723 C 80.822 73.763 80.672 73.782 80.525 73.782 Z" />
    <circle style="fill:#FFFFFF;" cx="89.749" cy="81.117" r="4.883" />
  </g>
  <g>
    <path
      d="M 108 1.102 C 108 1.218 109.6 1.381 111.547 1.449 C 115.465 1.612 116.763 1.796 118.733 2.539 C 120.727 3.281 121.91 4.3 122.767 5.992 C 124.18 8.822 124.112 6.896 124.112 49.945 C 124.112 92.09 124.135 90.863 122.976 93.506 C 122.21 95.198 121.422 96.032 119.753 96.843 C 117.643 97.887 115.788 98.257 111.663 98.42 C 109.645 98.512 108 98.675 108 98.79 C 108 98.885 124.39 98.977 144.396 98.977 C 164.426 98.977 180.792 98.885 180.792 98.79 C 180.792 98.698 181.418 93.089 182.182 86.341 C 182.947 79.573 183.596 73.8 183.62 73.5 C 183.667 73.198 183.575 72.896 183.435 72.849 C 183.296 72.804 183.018 73.569 182.786 74.681 C 180.235 86.806 173.165 94.573 162.292 97.238 C 158.839 98.096 156.659 98.304 149.404 98.443 C 143.676 98.559 142.727 98.536 142.912 98.257 C 143.006 98.073 145.231 94.734 147.804 90.792 L 152.51 83.677 L 152.51 49.945 L 152.51 16.216 L 147.665 8.867 L 142.796 1.496 L 149.055 1.426 C 152.951 1.402 155.292 1.287 155.292 1.147 C 155.292 0.987 146.992 0.916 131.645 0.916 C 118.641 0.916 108 1.008 108 1.102 Z M 142.31 49.945 L 142.31 98.512 L 138.949 98.512 L 135.586 98.512 L 135.586 49.945 L 135.586 1.381 L 138.949 1.381 L 142.31 1.381 L 142.31 49.945 Z"
      style="fill: rgb(75, 182, 170);" />
    <path
      d="M 189.369 1.102 C 189.369 1.218 190.969 1.381 192.916 1.449 C 197.737 1.636 200.149 2.19 202.167 3.536 C 203.859 4.671 204.971 7.151 205.365 10.653 C 205.667 13.318 205.667 86.575 205.365 89.239 C 204.6 96.01 201.841 98.049 193.078 98.42 C 184.547 98.79 190.69 98.977 211.277 98.977 C 231.769 98.977 237.982 98.79 229.614 98.42 C 225.116 98.236 223.726 97.979 221.639 96.959 C 219.692 96.01 218.694 94.849 217.837 92.485 L 217.304 90.979 L 217.233 50.712 C 217.165 6.804 217.118 8.706 218.486 5.924 C 219.992 2.839 222.727 1.728 229.427 1.449 C 231.49 1.381 233.184 1.218 233.184 1.102 C 233.184 1.008 223.331 0.916 211.277 0.916 C 199.222 0.916 189.369 1.008 189.369 1.102 Z"
      style="fill: rgb(75, 182, 170);" />
    <path
      d="M 239.026 1.194 C 239.094 1.357 239.488 1.518 239.929 1.541 C 243.129 1.775 246.096 3.257 248.251 5.692 C 249.573 7.198 252.147 11.326 253.398 13.875 C 254.302 15.777 273.822 64.69 285.412 94.179 C 286.457 96.82 287.429 98.977 287.592 98.977 C 287.731 98.977 290.629 92.022 294.014 83.49 C 320.186 17.653 319.861 18.441 322.412 14.245 C 324.869 10.236 327.28 7.361 329.69 5.53 C 332.68 3.257 335.88 1.983 339.149 1.728 C 341.328 1.541 341.908 1.426 341.908 1.147 C 341.908 0.987 323.918 0.916 290.42 0.916 C 249.341 0.916 238.955 0.987 239.026 1.194 Z M 307.598 1.89 C 310.404 2.7 312.582 4.022 314.506 6.132 C 318.355 10.328 319.629 15.822 317.984 21.016 C 317.335 23.055 293.62 82.749 293.457 82.726 C 293.388 82.726 291.394 77.812 289.006 71.785 C 286.618 65.757 280.012 49.157 274.308 34.879 C 264.41 10.12 263.924 8.845 263.924 7.406 C 263.9 4.555 265.778 2.169 268.443 1.612 C 269 1.518 277.763 1.449 287.894 1.473 C 303.727 1.541 306.508 1.588 307.598 1.89 Z"
      style="fill: rgb(75, 182, 170);" />
    <path
      d="M 347.704 1.102 C 347.704 1.218 349.349 1.381 351.367 1.449 C 357.949 1.704 360.939 2.91 362.4 5.9 C 363.884 8.961 363.814 6.526 363.814 49.714 C 363.814 91.998 363.837 90.955 362.61 93.575 C 362.284 94.247 361.567 95.222 361.01 95.732 C 359.063 97.539 356.651 98.189 351.249 98.42 C 343.461 98.767 348.561 98.977 364.857 98.977 L 382.035 98.977 L 387.112 91.257 L 392.212 83.561 L 392.212 67.959 L 392.212 52.381 L 392.769 52.381 C 394.09 52.381 394.81 53.377 409.135 75.098 C 414.653 83.445 419.498 90.7 419.869 91.21 C 422.559 94.781 426.082 97.214 430.139 98.328 C 431.808 98.767 432.688 98.838 440.269 98.93 C 446.088 99 448.545 98.953 448.545 98.767 C 448.545 98.49 448.035 98.351 446.112 98.189 C 441.684 97.794 437.835 95.753 434.635 92.138 C 433.269 90.561 432.039 88.753 417.32 66.545 L 406.794 50.665 L 409.251 49.808 C 415.533 47.604 419.8 44.706 423.092 40.394 C 425.92 36.755 427.31 32.792 427.612 27.669 C 427.982 21.316 425.665 15.243 421.167 10.677 C 415.557 5.02 408.047 2.006 397.451 1.147 C 393.835 0.869 347.704 0.824 347.704 1.102 Z M 382.012 49.945 L 382.012 98.512 L 378.651 98.512 L 375.29 98.512 L 375.29 49.945 L 375.29 1.381 L 378.651 1.381 L 382.012 1.381 L 382.012 49.945 Z M 394.531 1.612 C 399.353 2.006 403.063 3.467 406.237 6.155 C 411.547 10.698 414.467 18.024 414.467 26.81 C 414.467 37.892 409.645 46.469 401.371 50.108 C 399.608 50.896 395.737 51.685 393.743 51.685 L 392.212 51.685 L 392.212 33.996 L 392.212 16.308 L 387.506 9.145 C 384.91 5.181 382.731 1.82 382.616 1.657 C 382.406 1.31 390.451 1.263 394.531 1.612 Z"
      style="fill: rgb(75, 182, 170);" />
    <path
      d="M 487.492 0.128 C 487.167 0.175 486.124 0.338 485.173 0.475 C 475.182 1.912 466.535 7.059 459.116 15.985 C 451.304 25.349 447.386 36.71 447.386 49.945 C 447.386 65.13 452.579 77.881 462.894 88.057 C 471.126 96.171 480.259 99.973 491.431 99.949 C 502.304 99.904 510.859 96.357 519.228 88.406 C 527.782 80.269 533.022 69.814 534.714 57.481 C 535.224 53.794 535.2 46.006 534.69 42.181 C 533.322 32.188 529.706 23.773 523.424 15.985 C 516.122 6.967 506.292 1.357 495.79 0.22 C 493.68 0.012 488.79 -0.057 487.492 0.128 Z M 496.184 1.402 C 503.371 3.188 509.979 9.61 514.824 19.508 C 519.18 28.457 521.175 37.892 521.198 49.83 C 521.198 55.394 520.943 58.71 520.155 63.624 C 518.626 72.967 514.453 82.912 509.422 89.216 C 504.182 95.777 498.78 98.838 492.012 99.139 C 486.239 99.394 481 97.285 476.386 92.857 C 472.794 89.379 470.498 86.065 467.555 80.083 C 463.267 71.32 461.318 61.885 461.296 49.924 C 461.296 38.124 463.288 28.549 467.6 19.739 C 472.098 10.583 477.269 4.904 483.551 2.306 C 485.149 1.657 487.7 0.987 489.229 0.824 C 490.922 0.661 494.306 0.939 496.184 1.402 Z"
      style="fill: rgb(75, 182, 170);" />
    <path
      d="M 542.202 1.102 C 542.202 1.218 543.894 1.381 545.98 1.449 C 550.082 1.636 552.008 1.983 553.955 2.934 C 556.388 4.138 557.547 6.108 558.196 10.188 C 558.498 12.159 558.498 87.594 558.196 89.704 C 557.594 93.83 556.504 95.592 553.745 96.959 C 551.659 97.979 550.269 98.236 545.771 98.42 C 543.8 98.512 542.202 98.675 542.202 98.79 C 542.202 98.885 558.567 98.977 578.596 98.977 L 614.971 98.977 L 615.086 98.212 C 615.226 97.447 617.775 74.775 617.845 73.708 C 617.867 73.383 617.798 73.083 617.659 73.012 C 617.52 72.943 617.265 73.708 617.033 74.751 C 616.43 77.626 615.318 80.755 613.973 83.467 C 610.126 91.165 603.959 95.777 595.079 97.585 C 592.182 98.165 586.061 98.559 581.008 98.467 L 577.043 98.396 L 582.004 90.908 L 586.943 83.422 L 586.943 49.945 L 586.943 16.471 L 582.004 8.983 L 577.043 1.496 L 583.396 1.426 C 587.359 1.402 589.724 1.287 589.724 1.147 C 589.724 0.987 581.402 0.916 565.963 0.916 C 552.888 0.916 542.202 1.008 542.202 1.102 Z M 576.51 49.945 L 576.51 98.512 L 573.265 98.512 L 570.02 98.512 L 570.02 49.945 L 570.02 1.381 L 573.265 1.381 L 576.51 1.381 L 576.51 49.945 Z"
      style="fill: rgb(75, 182, 170);" />
    <path
      d="M 662.981 0.453 C 658.69 1.102 656.257 1.82 652.431 3.536 C 642.835 7.847 633.445 17.979 629.065 28.736 C 626.235 35.736 625.124 41.624 625.124 49.945 C 625.124 59.89 627.024 67.889 631.267 75.794 C 634.535 81.914 640.631 88.869 646.173 92.834 C 657.486 100.924 672.81 102.269 685.745 96.334 C 692.375 93.296 699.469 86.898 704.406 79.504 C 706.563 76.281 709.088 70.949 710.294 67.055 C 712.126 61.283 712.706 57.11 712.706 49.945 C 712.706 42.853 712.149 38.796 710.365 32.977 C 708.718 27.553 705.404 21.316 701.857 16.912 C 695.041 8.473 687.6 3.396 678.698 1.124 C 674.153 -0.035 667.802 -0.313 662.981 0.453 Z M 673.481 1.31 C 680.877 2.955 687.414 9.192 692.351 19.23 C 694.392 23.379 695.412 26.116 696.571 30.543 C 698.194 36.71 698.912 42.551 698.912 49.9 C 698.912 61.908 696.918 71.296 692.422 80.569 C 686.279 93.134 677.91 99.555 668.196 99.139 C 662.471 98.885 657.881 96.728 653.359 92.138 C 645.871 84.557 640.841 72.434 639.312 58.408 C 638.939 54.977 638.939 44.916 639.312 41.485 C 640.331 32.12 642.835 23.751 646.614 17.075 C 652.153 7.269 658.784 1.912 666.573 0.892 C 668.381 0.661 671.488 0.847 673.481 1.31 Z"
      style="fill: rgb(75, 182, 170);" />
    <path
      d="M 765.33 0.338 C 756.194 1.518 747.92 5.969 740.965 13.434 C 736.443 18.279 733.361 22.985 730.949 28.736 C 726.222 40 725.641 54.838 729.467 67.055 C 732.641 77.139 739.273 86.389 747.826 92.624 C 754.62 97.585 762.084 99.949 770.777 99.949 C 775.9 99.949 779.284 99.371 784.037 97.702 C 790.575 95.406 797.181 90.724 802.328 84.765 L 803.696 83.189 L 803.696 74.89 C 803.696 65.849 803.857 64.065 804.924 61.955 C 805.596 60.634 807.241 59.057 808.494 58.5 C 810.488 57.643 811.739 57.434 815.704 57.318 C 817.882 57.249 819.69 57.11 819.69 56.994 C 819.69 56.879 810.139 56.785 797.784 56.785 C 783.341 56.785 775.877 56.855 775.877 57.016 C 775.877 57.155 777.151 57.249 779.237 57.249 C 782.716 57.249 784.2 57.457 786.239 58.198 C 789.345 59.312 790.643 60.773 791.594 64.204 C 792.104 66.104 792.267 84.696 791.802 87.896 C 791.2 91.859 789.763 94.108 786.865 95.569 C 780.745 98.651 772.445 99.949 766.628 98.745 C 761.735 97.747 757.053 94.594 752.904 89.565 C 749.055 84.883 745.3 77.139 743.282 69.814 C 740.618 60.077 740.13 47.559 741.937 36.269 C 742.402 33.302 743.863 27.761 744.951 24.863 C 746.181 21.526 748.869 16.192 750.632 13.551 C 757.03 4.045 764.355 -0.012 773.396 0.916 C 779.702 1.565 784.269 3.722 788.743 8.194 C 793.449 12.879 797.02 19.763 799.477 28.828 C 799.824 30.126 800.241 31.169 800.428 31.238 C 800.682 31.332 800.704 31.169 800.612 30.567 C 800.543 30.126 799.824 23.796 799.035 16.494 C 798.247 9.216 797.506 3.234 797.414 3.234 C 797.32 3.234 797.181 3.536 797.088 3.93 C 796.626 6.039 793.867 5.761 785.475 2.794 C 778.241 0.243 771.982 -0.521 765.33 0.338 Z"
      style="fill: rgb(75, 182, 170);" />
  </g>
</svg>