<svg xmlns="http://www.w3.org/2000/svg" viewBox="0 0 280 280" fill="none" shape-rendering="auto"><metadata xmlns:rdf="http://www.w3.org/1999/02/22-rdf-syntax-ns#" xmlns:xsi="http://www.w3.org/2001/XMLSchema-instance" xmlns:dc="http://purl.org/dc/elements/1.1/" xmlns:dcterms="http://purl.org/dc/terms/"><rdf:RDF><rdf:Description><dc:title>Avataaars</dc:title><dc:creator>Pablo Stanley</dc:creator><dc:source xsi:type="dcterms:URI">https://avataaars.com/</dc:source><dcterms:license xsi:type="dcterms:URI">https://avataaars.com/</dcterms:license><dc:rights>Remix of „Avataaars” (https://avataaars.com/) by „Pablo Stanley”, licensed under „Free for personal and commercial use” (https://avataaars.com/)</dc:rights></rdf:Description></rdf:RDF></metadata><mask id="viewboxMask"><rect width="280" height="280" rx="0" ry="0" x="0" y="0" fill="#fff" /></mask><g mask="url(#viewboxMask)"><rect fill="#d1d4f9" width="280" height="280" x="0" y="0" /><g transform="translate(8)"><path d="M132 36a56 56 0 0 0-56 56v6.17A12 12 0 0 0 66 110v14a12 12 0 0 0 10.3 11.88 56.04 56.04 0 0 0 31.7 44.73v18.4h-4a72 72 0 0 0-72 72v9h200v-9a72 72 0 0 0-72-72h-4v-18.39a56.04 56.04 0 0 0 31.7-44.73A12 12 0 0 0 198 124v-14a12 12 0 0 0-10-11.83V92a56 56 0 0 0-56-56Z" fill="#614335"/><path d="M108 180.61v8a55.79 55.79 0 0 0 24 5.39c8.59 0 16.73-1.93 24-5.39v-8a55.79 55.79 0 0 1-24 5.39 55.79 55.79 0 0 1-24-5.39Z" fill="#000" fill-opacity=".1"/><g transform="translate(0 170)"><path d="M132.5 51.83c18.5 0 33.5-9.62 33.5-21.48 0-.36-.01-.7-.04-1.06A72 72 0 0 1 232 101.04V110H32v-8.95a72 72 0 0 1 67.05-71.83c-.03.37-.05.75-.05 1.13 0 11.86 15 21.48 33.5 21.48Z" fill="#E6E6E6"/><path d="M132.5 58.76c21.89 0 39.63-12.05 39.63-26.91 0-.6-.02-1.2-.08-1.8-2-.33-4.03-.59-6.1-.76.04.35.05.7.05 1.06 0 11.86-15 21.48-33.5 21.48S99 42.2 99 30.35c0-.38.02-.76.05-1.13-2.06.14-4.08.36-6.08.67-.07.65-.1 1.3-.1 1.96 0 14.86 17.74 26.91 39.63 26.91Z" fill="#000" fill-opacity=".16"/><path d="M100.78 29.12 101 28c-2.96.05-6 1-6 1l-.42.66A72.01 72.01 0 0 0 32 101.06V110h74s-10.7-51.56-5.24-80.8l.02-.08ZM158 110s11-53 5-82c2.96.05 6 1 6 1l.42.66a72.01 72.01 0 0 1 62.58 71.4V110h-74Z" fill="#65c9ff"/><path d="M101 28c-6 29 5 82 5 82H90L76 74l6-9-6-6 19-30s3.04-.95 6-1ZM163 28c6 29-5 82-5 82h16l14-36-6-9 6-6-19-30s-3.04-.95-6-1Z" fill-rule="evenodd" clip-rule="evenodd" fill="#000" fill-opacity=".15"/><path d="m183.42 85.77.87-2.24 6.27-4.7a4 4 0 0 1 4.85.05l6.6 5.12-18.59 1.77Z" fill="#E6E6E6"/></g><g transform="translate(78 134)"><path fill-rule="evenodd" clip-rule="evenodd" d="M34 30.4C35.14 19.9 38.24 11 54 11c15.76 0 18.92 8.96 20 19.5.08.84-.83 1.5-1.96 1.5-6.69 0-9.37-1.5-18.05-1.5-8.7 0-13.24 1.5-17.9 1.5-1.15 0-2.2-.55-2.1-1.6Z" fill="#000" fill-opacity=".7"/><path d="M67.86 15.1c-.8.57-1.8.9-2.86.9H44c-1.3 0-2.49-.5-3.38-1.31C43.56 12.38 47.8 11 54 11c6.54 0 10.9 1.54 13.86 4.1Z" fill="#fff"/><path d="M42 25a6 6 0 0 0-6 6v7a6 6 0 0 0 12 0v-2h.08a6 6 0 0 1 11.84 0H60a6 6 0 0 0 12 0v-5a6 6 0 0 0-6-6H42Z" fill="#7BB24B"/><path d="M72 31a6 6 0 0 0-6-6H42a6 6 0 0 0-6 6v6a6 6 0 0 0 12 0v-2h.08a6 6 0 0 1 11.84 0H60a6 6 0 0 0 12 0v-4Z" fill="#88C553"/></g><g transform="translate(104 122)"><path fill-rule="evenodd" clip-rule="evenodd" d="M16 8c0 4.42 5.37 8 12 8s12-3.58 12-8" fill="#000" fill-opacity=".16"/></g><g transform="translate(76 90)"><path d="M27 16c-4.84 0-9 2.65-10.84 6.45-.54 1.1.39 1.85 1.28 1.12a15.13 15.13 0 0 1 9.8-3.22 6 6 0 1 0 10.7 2.8 2 2 0 0 0-.12-.74l-.15-.38a6 6 0 0 0-1.64-2.48C33.9 17.32 30.5 16 27 16ZM85 16c-4.84 0-9 2.65-10.84 6.45-.54 1.1.39 1.85 1.28 1.12a15.13 15.13 0 0 1 9.8-3.22 6 6 0 1 0 10.7 2.8 2 2 0 0 0-.12-.74l-.15-.38a6 6 0 0 0-1.64-2.48C91.9 17.32 88.5 16 85 16Z" fill="#000" fill-opacity=".6"/></g><g transform="translate(76 82)"><path d="M38.03 5.6c-1.48 8.38-14.1 14.17-23.24 10.42a2.04 2.04 0 0 0-2.64 1c-.43.97.04 2.1 1.05 2.5 11.45 4.7 26.84-2.37 28.76-13.3a1.92 1.92 0 0 0-1.64-2.2 2 2 0 0 0-2.3 1.57ZM73.97 5.6c1.48 8.38 14.1 14.17 23.24 10.42 1.02-.41 2.2.03 2.63 1 .43.97-.04 2.1-1.05 2.5-11.44 4.7-26.84-2.37-28.76-13.3a1.92 1.92 0 0 1 1.64-2.2 2 2 0 0 1 2.3 1.57Z" fill="#000" fill-opacity=".6"/></g><g transform="translate(-1)"><path d="M242.13 168.86c4.84 6.8 11.1 14 12.25 22.06.45 3.2.7 16.23-7.54 11.43-.27 4.36-.97 4.98.34 9.2.88 2.86 2.08 8.62-3.87 8.1 2.26 6.17 5.88 14.76 2.48 21.16-5.58 10.51-11.89-2.74-13.57-7.49.1 3.28-3.42 9.2-7.84 4.63.35 5.42 2.52 13.78-.66 18.86-6.16 9.85-12.97-2.62-13.2-7.9-1.11 3.56-.28 12.14-7.6 10.15-6.32-1.71-4.03-10.09-2.8-13.87-2.02 3.56-4.5 8.85-4.88 12.87-.34 3.45 2.94 11.57-5.55 10.05-6.52-1.17-6.76-10.9-6.65-15.18.1-3.48 3.46-11.43 1.18-14.25-12.73 5.34.6 23.3-10.95 27.3-3.84 1.32-7.04-1.18-8.32-4.64.4-1.7-.36-2.56-2.28-2.6-1.21-1.49-2.01-1.44-2.8-3.66-2.31-6.52 2.2-15.19 5.43-21-3.35 3.05-6.05 7.25-9.7 9.91-2.45 1.8-6.08 2.31-8.38-.17-2.51-2.73-.13-5.34 1.22-7.82 3-5.49 7.73-8.68 12.67-13.08 4.33-3.85 8.18-8.18 12.01-12.37 2.57-2.8 5.01-5.8 7.06-8.97A72.1 72.1 0 0 0 161 199h-4v-18.39a56.24 56.24 0 0 0 25.8-24.98c.1-3.28.28-7.11.47-11.2.54-12.09 1.19-26.4.48-35.34l-.2-2.58c-1.12-14.36-1.8-23.03-12-36.06-4.56-5.83-13.18-7.67-21.72-9.5-8.09-1.73-16.1-3.45-20.51-8.51-4.13 4.78-10.14 7.32-16.74 8.99-1.45.37-2.9.67-4.34.96-4.98 1.03-9.7 2-13.08 5.6-7.8 8.32-11.23 13.88-13.62 24.26A116.55 116.55 0 0 0 79 126.83c.13 1.88.22 3.78.32 5.69.35 7.1.71 14.32 2.9 21.1a56.23 56.23 0 0 0 26.78 27V199h-4c-1.1 0-2.2.03-3.28.07.67 3.44 1.09 6.93.81 10.34-.4 5-1.34 9.66-.85 14.7 1.04 10.52 5.41 20.5 9.02 30.52 1.73 4.82 9.36 10.49 6.23 14.46-3.13 3.98-13.81-5.47-16.2-10.05-2.44-4.66-4.65-9.4-7.18-14.03 1.48 6.46 2.77 13.1 4.8 19.41 1.36 4.27 3.43 10.72-2.28 11.94-8.95 1.91-9.3-12.58-10.18-16.9-1.47-7.19-3.1-9.98-5.5-16.97-.49 5.34.34 10.9-.81 16.2-.7 3.19-4.36 5.83-6.56 8.53-7.53 9.28-9.32-6.28-11.23-10.55-3.3 2.4-10.5 7.16-14.9 4.14-3.26-2.23-1.2-6.27-.44-9.03 1.22-4.45 1.94-8.85-1.31-12.87-3.1 3-9.92 4.75-13.88 1.88-5-3.63-.62-8.94 1.63-12.7 4.33-7.26 4.07-15.87 5.44-23.94.46-2.7 1.06-6.26.3-8.12-1.1-2.68-2.3-2.7-4.74-2.1-3.45.87-6.29 2.8-6.87 5.58-.84 4.03 3.57 5.62 3.93 9.12.77 7.55-8.7 4-11.53.62-6.95-8.36-1.26-18.23 4.21-25.56 1.87-2.5 2.4-3.22 2.02-6.48-.77-6.41-2.5-12.18-1.88-18.72.86-8.97 4.3-17.44 9.35-24.82 3.46-5.06 5.29-9.45 5.79-15.57 1.41-17.39 7.32-35.28 15.05-50.74 3.97-7.93 7.96-16.5 14.83-22.4 2.23-1.91 6.24-2.8 8.17-4.65 3.56-3.43.44-9.5 4.95-13.39 3.78-3.25 8.17-2.17 12.28-3.93 4.21-1.81 5.11-7.42 10.21-8.61 5.16-1.2 9.29 2.18 13.66 3.8 6.43 2.38 10.45 1.69 16.76-.3l.08-.03c4.2-1.33 6.95-2.2 10.89.1 2.55 1.5 4.52 5.95 7.65 6.37 3.8.52 9.14-3.04 13.35-2.9 6.45.2 9.59 4.24 12.25 8.55 1.55 2.5 4.4 3.67 6.1 6.15.62.9 1.24 1.8 2.13 2.61 6.31 5.77 14.58 10.25 21.37 15.68 12.66 10.15 15.66 23.88 16.48 37.83.66 11.18-.37 24.31 6.74 34.31 3.71 5.22 7.82 9.73 10.02 15.85.78 2.19 1.85 5.2.51 7.12-1.8 2.58-6.36 2.6-8.31.14-1.9 5.87 4.57 14.35 8.03 19.22Z" fill="#724133"/><path d="M182.5 156.2c-.07 3 0 5.98.38 8.86.33 2.5.84 4.91 1.34 7.31 1.13 5.33 2.23 10.56 1.3 16.27-.75 4.53-2.73 8.87-5.36 12.94A72.09 72.09 0 0 0 161 199h-4v-18.39a56.24 56.24 0 0 0 25.5-24.4ZM101.72 199.07a125 125 0 0 0-1.23-5.48c-2.14-8.82-6.42-16.63-10.77-24.55-1.9-3.46-3.8-6.94-5.56-10.53a37.08 37.08 0 0 1-1.95-4.89 56.23 56.23 0 0 0 26.8 27V199h-4c-1.1 0-2.2.03-3.28.07Z" fill="#000" fill-opacity=".24"/><path d="M102.48 33.5c-1.67 0-12.16 4.75-8.24 6.16 2.4.86 12.5-6.15 8.24-6.15ZM171.05 47.36c-.85.38-.83.73.04 1.07.85-.38.83-.74-.04-1.07ZM195.51 65.6a26.84 26.84 0 0 0-1.37-2.76c-.89-1.27-6.24-8.4-2.47-7.5 2.08.48 4.89 6.17 6.15 8.74.78 1.57 4.28 7.12.72 6.75-.63-.07-1.95-2.92-3.03-5.23ZM204.02 110.75c-.15-1.17.25-4.76-2.46-3.42-1.8.9.67 11.72.82 13.13l.46 3.95v.03c.6 6.07 1.42 12.1 1.33 18.23-.01.76-1.2 6.66 1.55 5.4 1.46-.66.78-8.74.57-11.2-.74-8.72-1.11-17.46-2.27-26.12ZM65.36 122.25c.08 1.58-.7 9.75 1.43 9.8 1.83.04 1.24-8.4 1-11.83-.08-1.08-.08-11.14-2.1-9.91-2.32 1.4-.46 9.52-.34 11.94ZM73.8 180c0-1.43.82-14.45-1.9-11.38-1.37 1.54-.48 7.02-.35 8.88.05.7-.52 2.86.41 3.19.76.26 1.83.32 1.84-.7ZM48.12 193.16c1.93-.05.14-37.83-2.82-37.79-2.08.03 1.36 37.83 2.82 37.8ZM50.35 212.52c-2.4 0-1.95 8.46-.54 9.13 2.14 1.03 3.23-9.13.54-9.13ZM65.59 216.06c.02 1.05-1.18 1.07-1.98.74-.72-.3-.63-2.31-.58-3.49.05-1.1-.15-2.2-.31-3.29-.5-3.38-1.26-8.48.04-9.65 1.98-1.78 2.02.17 2.55 1.5 1.56 3.9.2 10.03.28 14.19ZM203.02 169.59c-2.53-.5-3.85 8.1-2.7 9.01 1.92 1.53 5.35-8.49 2.7-9.01ZM202.75 207.38c-1.13-.22-9.43 15.74-8.75 16.64 1.3 1.72 12.83-15.82 8.75-16.64ZM182.33 214.76c-1.78-.8-9.33 10.75-7.4 11.62 1.75.78 9.56-10.65 7.4-11.62ZM224.43 171.45c-2.16 0-2.06 11.82-.4 12.56 1.7.78 2.94-12.56.4-12.56ZM83.51 54.2c1.26-.65 5.45-.87 3.1 1.29-2 1.84-9.53 12.51-12.12 12.62-4.22.18 2.59-7.24 4.76-9.6 1.33-1.45 2.49-3.41 4.26-4.32ZM59.25 83.98c-2.18-.43-5.83 10.27-4.56 11.56 1.93 1.95 7.01-11.07 4.56-11.56ZM81.4 201.85c.48-2.6 2.38-.2 2.8 1.14.4 1.34 4.62 11.08 3.56 12.36-1.63 1.97-2.34-1.37-2.9-2.57-1.31-2.83-3.92-8.43-3.46-10.93ZM75.99 225.82c-2.3 0-2.03 9.8-.67 10.38 2.12.9 3.48-10.38.67-10.38ZM232.81 203.88a58.4 58.4 0 0 1 4.98 13.57c.14.6 2.06 5.56-.66 4.84-1.56-.41-1.8-4.78-2.2-6.1a32.5 32.5 0 0 0-2.58-5.56c-1.41-2.63-2.85-5.31-3.06-7.64-.33-3.9 1.84-2.42 3.52.89ZM218.09 216.95c-2.13 0-2.24 10.77-.9 11.4 1.86.88 3.62-11.4.9-11.4ZM224.25 128.65c1.58-.4-3.4-13.32-5.18-13.18-2.7.22 2.78 13.8 5.18 13.18ZM197.43 184.75c-.84.38-.83.74.05 1.07.84-.38.83-.74-.05-1.07ZM173.22 239.99c.79 0 1.12-1.23-.06-1.25-.77 0-1.18 1.25.06 1.25ZM74.68 184.63c.03-1.9-2.46-.5-2.45 1.1.03 3.21 2.4 1.75 2.45-1.1ZM68.52 136.88c-.8 0-1.13 1.24.05 1.27.78 0 1.2-1.27-.05-1.27ZM47.78 199.44c-.1 0 1.53-1.99 1.6-.05.07 1.47-1.31.06-1.6.05ZM53.6 98.06c-2.37 0-2.02 5.76-.51 6.13 2.52.61 2.86-6.13.5-6.13ZM66.21 222.33c-2.28 0-2.44 7.8-.86 8.3 2.45.75 3.24-8.3.86-8.3ZM47.46 227.93c-.88.4-.86.76.04 1.1.87-.39.86-.75-.04-1.1ZM217.46 231.28c-2.32 0-2.23 9.56-.8 10.2 1.98.9 3.48-10.2.8-10.2ZM193.95 240.16c-2.41-.48-3.68 7.4-2.55 8.3 1.85 1.45 5.02-7.8 2.55-8.3ZM173.47 247.45c-2 0-1.51 3.58-.36 4.1 2 .93 2.6-4.1.37-4.1Z" fill="#fff" fill-opacity=".3"/></g><g transform="translate(49 72)"></g><g transform="translate(62 42)"></g></g></g></svg>