<?xml version="1.0" encoding="iso-8859-1"?>
<!-- Generator: Adobe Illustrator 19.0.0, SVG Export Plug-In . SVG Version: 6.00 Build 0)  -->
<svg version="1.1" id="Layer_1" xmlns="http://www.w3.org/2000/svg" xmlns:xlink="http://www.w3.org/1999/xlink" x="0px" y="0px"
	 viewBox="0 0 512 512" style="enable-background:new 0 0 512 512;" xml:space="preserve">
<g>
	<g>
		<g>
			<path d="M84.718,340.769c4.461,0,8.075-3.614,8.075-8.075V179.307c0-4.461-3.614-8.075-8.075-8.075s-8.075,3.614-8.075,8.075
				v153.388C76.643,337.154,80.257,340.769,84.718,340.769z"/>
			<path d="M428.411,370.76c-17.059,0-30.938,13.88-30.938,30.94c0,17.059,13.88,30.937,30.938,30.937
				c17.061,0,30.94-13.88,30.94-30.937C459.351,384.638,445.472,370.76,428.411,370.76z M428.411,416.488
				c-8.154,0-14.787-6.633-14.787-14.787c0-8.155,6.633-14.789,14.787-14.789c8.155,0,14.789,6.635,14.789,14.789
				C443.201,409.853,436.566,416.488,428.411,416.488z"/>
			<path d="M510.804,435.5L408.597,53.357c-4.101-15.344-18.079-26.059-33.989-26.059c-3.043,0-6.084,0.401-9.039,1.192
				l-69.095,18.479c-9.04,2.417-16.611,8.233-21.318,16.38c-4.708,8.144-5.969,17.608-3.552,26.647l10.143,37.927
				c-3.439-1.127-7.108-1.745-10.921-1.745h-82.404c-6.993,0-13.51,2.062-18.992,5.597V48.945c0-19.377-15.764-35.142-35.14-35.142
				H35.14C15.765,13.805,0,29.568,0,48.945v414.109c0,19.377,15.765,35.142,35.142,35.142h99.152
				c10.877,0,20.614-4.968,27.065-12.754c6.451,7.786,16.189,12.754,27.067,12.754h82.404c19.377,0,35.142-15.765,35.142-35.142
				V218.482l67.841,253.655c4.102,15.343,18.081,26.058,33.99,26.058c3.043,0,6.084-0.401,9.039-1.191l69.096-18.477
				C504.652,473.519,515.807,454.218,510.804,435.5z M153.282,463.056c0,10.472-8.519,18.992-18.99,18.992H35.141
				c-10.471-0.001-18.991-8.521-18.991-18.992v-17.647h137.132V463.056z M153.282,429.258H16.15v-31.285h137.132V429.258z
				 M153.282,381.823H16.15V130.178h137.132V381.823z M153.282,114.028H16.15V82.743h137.132V114.028z M153.283,66.592h-0.001H16.15
				V48.945c0-10.472,8.52-18.992,18.992-18.992h99.152c10.471,0,18.99,8.52,18.99,18.992V66.592z M289.82,463.056
				c0,10.472-8.52,18.992-18.992,18.992h-82.404c-10.472,0-18.992-8.52-18.992-18.992V161.317c0-10.472,8.52-18.991,18.992-18.991
				h82.404c10.472,0,18.992,8.519,18.992,18.991V463.056z M287.207,85.822c-1.303-4.871-0.616-9.983,1.933-14.393
				c2.55-4.41,6.637-7.556,11.509-8.859l69.096-18.479c1.592-0.426,3.23-0.643,4.866-0.643c8.609,0,16.17,5.789,18.387,14.08
				l11.308,42.281L298.515,128.1L287.207,85.822z M302.687,143.701l105.79-28.291l6.93,25.909l-105.79,28.291L302.687,143.701z
				 M313.789,185.213l105.791-28.291l3.477,13l-105.791,28.291L313.789,185.213z M321.439,213.814l105.79-28.291l6.931,25.908
				l-105.791,28.291L321.439,213.814z M481.761,462.925l-69.096,18.477c-1.592,0.426-3.23,0.643-4.866,0.643
				c-8.609,0-16.172-5.79-18.389-14.08l-56.872-212.641l105.791-28.291l56.872,212.638
				C497.906,449.786,491.877,460.22,481.761,462.925z"/>
			<path d="M452.396,341.315c-1.152-4.309-5.587-6.869-9.887-5.715l-59.372,15.877c-4.309,1.151-6.867,5.578-5.715,9.887
				c0.966,3.61,4.229,5.991,7.795,5.991c0.691,0,1.393-0.089,2.091-0.277l59.372-15.877
				C450.99,350.05,453.548,345.624,452.396,341.315z"/>
			<path d="M263.909,308.725h-68.565c-4.461,0-8.075,3.614-8.075,8.075c0,4.46,3.614,8.075,8.075,8.075h68.565
				c4.461,0,8.075-3.616,8.075-8.075C271.984,312.339,268.37,308.725,263.909,308.725z"/>
			<path d="M229.626,203.676c-25.036,0-45.404,20.369-45.404,45.405c0,25.036,20.368,45.404,45.404,45.404
				c25.037,0,45.406-20.368,45.406-45.404C275.031,224.044,254.663,203.676,229.626,203.676z M229.626,278.334
				c-16.13,0-29.254-13.123-29.254-29.253c0-16.131,13.124-29.255,29.254-29.255c16.131,0,29.256,13.123,29.256,29.255
				C258.881,265.212,245.758,278.334,229.626,278.334z"/>
			<path d="M263.909,339.804h-68.565c-4.461,0-8.075,3.614-8.075,8.075s3.614,8.075,8.075,8.075h68.565
				c4.461,0,8.075-3.614,8.075-8.075S268.37,339.804,263.909,339.804z"/>
		</g>
	</g>
</g>
<g>
</g>
<g>
</g>
<g>
</g>
<g>
</g>
<g>
</g>
<g>
</g>
<g>
</g>
<g>
</g>
<g>
</g>
<g>
</g>
<g>
</g>
<g>
</g>
<g>
</g>
<g>
</g>
<g>
</g>
</svg>
